# AST/ASF file generated using VICON BodyLanguage
# -----------------------------------------------
:version 1.10
:name VICON
:units
  mass 1.0
  length 0.45
  angle deg
:documentation
   .ast/.asf automatically generated from VICON data using
   VICON BodyBuilder and BodyLanguage model FoxedUp or BRILLIANT.MOD
:root
   order TX TY TZ RX RY RZ
   axis XYZ
   position 0 0 0  
   orientation 0 0 0 
:bonedata
  begin
     id 1 
     name lhipjoint
     direction 0.714689 -0.624256 0.315473 
     length 2.45343 
     axis 0 0 0  XYZ
  end
  begin
     id 2 
     name lfemur
     direction 0.34202 -0.939693 0  
     length 6.59069  
     axis 0 0 20  XYZ
    dof rx ry rz
    limits (-160.0 20.0)
           (-70.0 70.0)
           (-60.0 70.0)
  end
  begin
     id 3 
     name ltibia
     direction 0.34202 -0.939693 0   
     length 6.73476   
     axis 0 0 20   XYZ
    dof rx
    limits (-10.0 170.0)
  end
  begin
     id 4 
     name lfoot
     direction 0.0718085 -0.197292 0.977711   
     length 1.52607   
     axis -90 7.62852e-016 20   XYZ
    dof rx rz
    limits (-45.0 90.0)
           (-70.0 20.0)
  end
  begin
     id 5 
     name ltoes
     direction 1.53553e-011 -4.22024e-011 1   
     length 0.777832   
     axis -90 7.62852e-016 20   XYZ
    dof rx
    limits (-90.0 20.0)
  end
  begin
     id 6 
     name rhipjoint
     direction -0.727419 -0.612432 0.309497   
     length 2.50079  
     axis 0 0 0  XYZ 
  end
  begin
     id 7 
     name rfemur
     direction -0.34202 -0.939693 0   
     length 6.51665   
     axis 0 0 -20   XYZ
    dof rx ry rz
    limits (-160.0 20.0)
           (-70.0 70.0)
           (-70.0 60.0)
  end
  begin
     id 8 
     name rtibia
     direction -0.34202 -0.939693 0   
     length 6.48919   
     axis 0 0 -20   XYZ
    dof rx
    limits (-10.0 170.0)
 end
 begin
     id 9 
     name rfoot
     direction -0.112205 -0.308282 0.944655   
     length 1.68717  
     axis -90 -7.62852e-016 -20   XYZ
    dof rx rz
    limits (-45.0 90.0)
           (-20.0 70.0)
  end
  begin
     id 10 
     name rtoes
     direction -1.53583e-011 -4.21993e-011 1   
     length 0.846859   
     axis -90 -7.62852e-016 -20   XYZ
    dof rx
    limits (-90.0 20.0)
  end
  begin
     id 11 
     name lowerback
     direction -0.00119603 0.996364 -0.0851956   
     length 1.67242   
     axis 0 0 0   XYZ
    dof rx ry rz
    limits (-20.0 45.0)
           (-30.0 30.0)
           (-30.0 30.0)
  end
  begin
     id 12 
     name upperback
     direction -0.00531001 0.998318 0.0577248   
     length 1.64819   
     axis 0 0 0   XYZ
    dof rx ry rz
    limits (-20.0 45.0)
           (-30.0 30.0)
           (-30.0 30.0)
  end
  begin
     id 13 
     name thorax
     direction -0.00653676 0.995132 0.0983291   
     length 1.67429   
     axis 0 0 0   XYZ
    dof rx ry rz
    limits (-20.0 45.0)
           (-30.0 30.0)
           (-30.0 30.0)
  end
  begin
     id 14 
     name lowerneck
     direction 0.0141424 0.999886 0.00525412   
     length 1.59623   
     axis 0 0 0   XYZ
    dof rx ry rz
    limits (-20.0 45.0)
           (-30.0 30.0)
           (-30.0 30.0)
  end
  begin
     id 15 
     name upperneck
     direction -0.0640064 0.987178 -0.146232   
     length 1.59576   
     axis 0 0 0   XYZ
    dof rx ry rz
    limits (-20.0 45.0)
           (-30.0 30.0)
           (-30.0 30.0)
  end
  begin
     id 16
     name head
     direction -0.0222942 0.998496 -0.0500859  
     length 1.60959  
     axis 0 0 0   XYZ
    dof rx ry rz
    limits (-20.0 45.0)
           (-30.0 30.0)
           (-30.0 30.0)
  end
  begin
     id 17 
     name lclavicle
     direction 0.908549 0.392612 0.142806  
     length 2.80649  
     axis 0 0 0   XYZ
    dof ry rz
    limits (-20.0 10.0)
           (0.0 20.0)
  end
  begin
     id 18 
     name lhumerus
     direction 1 -4.48968e-011 1.08832e-028   
     length 4.2884   
     axis -180 -30 -90   XYZ
    dof rx ry rz
    limits (-60.0 90.0)
           (-90.0 90.0)
           (-90.0 90.0)
  end
  begin
     id 19
     name lradius
     direction 1 -4.48952e-011 -3.02642e-028   
     length 3.06552   
     axis -180 -30 -90   XYZ
    dof rx
    limits (-10.0 170.0)
  end
  begin
     id 20
     name lwrist
     direction 1 -4.49014e-011 1.58672e-027   
     length 1.53276   
     axis -1.65735e-015 90 90   XYZ
    dof ry
    limits (-180.0 0.0)
 end
  begin
     id 21 
     name lhand
     direction 1 -4.48928e-011 3.17344e-027   
     length 0.753045   
     axis -2.02492e-015 90 90   XYZ
    dof rx rz
    limits (-90.0 90.0)
           (-45.0 45.0)
  end
  begin
     id 22 
     name lfingers
     direction 1 -4.48958e-011 6.34687e-027   
     length 0.607124   
     axis -4.04985e-015 90 90   XYZ
    dof rx
    limits (0.0 90.0)
  end
  begin
     id 23
     name lthumb
     direction 0.707107 -6.34905e-011 0.707107   
     length 0.871712   
     axis -90 45 2.85299e-015   XYZ
    dof rx rz
    limits (-45.0 45.0)
           (-45.0 45.0)
  end
  begin
     id 24 
     name rclavicle
     direction -0.885098 0.45949 0.0739604   
     length 2.9478  
     axis 0 0 0   XYZ 
    dof ry rz
    limits (-10.0 20.0)
           (-20.0 0.0)
  end
  begin
     id 25 
     name rhumerus
     direction -1 -4.4898e-011 -2.61739e-027  
     length 4.52172   
     axis -180 30 90   XYZ
    dof rx ry rz
    limits (-90.0 60.0)
           (-90.0 90.0)
           (-90.0 90.0)
  end
  begin
     id 26 
     name rradius
     direction -1 -4.48945e-011 9.02552e-028   
     length 2.8914   
     axis -180 30 90   XYZ
    dof rx
    limits (-10.0 170.0)
  end
  begin
     id 27 
     name rwrist
     direction -1 -4.49018e-011 1.58672e-027   
     length 1.4457   
     axis -1.65735e-015 -90 -90   XYZ
    dof ry
    limits (-180.0 0.0)
  end
  begin
     id 28
     name rhand
     direction -1 -4.48825e-011 3.17344e-027   
     length 0.680541   
     axis -2.02492e-015 -90 -90   XYZ
    dof rx rz
    limits (-90.0 90.0)
           (-45.0 45.0)
  end
  begin
     id 29
     name rfingers
     direction -1 -4.49067e-011 6.34687e-027   
     length 0.54867   
     axis -4.04985e-015 -90 -90   XYZ
    dof rx
    limits (0.0 90.0)
  end
  begin
     id 30
     name rthumb
     direction -0.707107 -6.34833e-011 0.707107   
     length 0.787783   
     axis -90 -45 -2.85299e-015   XYZ
    dof rx rz
    limits (-45.0 45.0)
           (-45.0 45.0)
  end
:hierarchy
  begin
    root lhipjoint rhipjoint lowerback
    lhipjoint lfemur
    lfemur ltibia
    ltibia lfoot
    lfoot ltoes
    rhipjoint rfemur
    rfemur rtibia
    rtibia rfoot
    rfoot rtoes
    lowerback upperback
    upperback thorax
    thorax lowerneck lclavicle rclavicle
    lowerneck upperneck
    upperneck head
    lclavicle lhumerus
    lhumerus lradius
    lradius lwrist
    lwrist lhand lthumb
    lhand lfingers
    rclavicle rhumerus
    rhumerus rradius
    rradius rwrist
    rwrist rhand rthumb
    rhand rfingers
  end

#!OML:ASF E:\emotionWalksFemale\Project 1\Capture day 1\Session 1\Female1.ASF
:FULLY-SPECIFIED
:DEGREES
65
root 9.43238 13.6874 -9.81458 22.3706 2.6797 -1.30801
lowerback 17.4191 1.01477 1.74514
upperback -2.22571 1.78069 0.403218
thorax -12.26 0.727127 -1.03711
lowerneck -9.73349 -3.72951 -5.28605
upperneck -14.0947 -4.05527 6.4154
head -2.64508 -1.90709 3.00216
rclavicle -1.04362e-014 -2.18663e-015
rhumerus -31.3424 -10.9445 -78.3399
rradius 26.1184
rwrist 41.0756
rhand -9.69018 -49.5995
rfingers 7.12502
rthumb 16.282 -78.9359
lclavicle -1.04362e-014 -2.18663e-015
lhumerus -36.8027 6.40907 83.3963
lradius 27.4634
lwrist -20.2171
lhand -10.5101 -43.7482
lfingers 7.12502
lthumb 15.4924 -14.3489
rfemur -50.8018 4.00239 28.8492
rtibia 71.0469
rfoot -33.7927 -23.621
rtoes -6.54889
lfemur -55.0945 -3.08335 -21.1977
ltibia 74.9783
lfoot -36.2271 7.04842
ltoes -27.9384
66
root 9.43006 13.6628 -9.78827 22.0994 2.72938 -1.24381
lowerback 17.7539 0.992776 1.69522
upperback -2.16153 1.7423 0.369202
thorax -12.3843 0.709125 -1.04303
lowerneck -9.9738 -3.76413 -5.09107
upperneck -13.9216 -4.12392 6.25745
head -2.54599 -1.94453 2.89943
rclavicle 5.86415e-015 -6.95746e-015
rhumerus -29.8058 -12.3883 -78.254
rradius 26.23
rwrist 41.0864
rhand -9.97899 -49.81
rfingers 7.12502
rthumb 16.0039 -79.1689
lclavicle 5.86415e-015 -6.95746e-015
lhumerus -35.0621 6.30601 83.6571
lradius 27.3014
lwrist -20.5363
lhand -10.932 -43.7828
lfingers 7.12502
lthumb 15.086 -14.3525
rfemur -50.7414 3.98286 28.8553
rtibia 71.7442
rfoot -33.6097 -23.8355
rtoes -6.72726
lfemur -54.9975 -3.02961 -21.2996
ltibia 75.5875
lfoot -36.1146 7.27923
ltoes -29.3454
67
root 9.42362 13.6394 -9.75779 21.944 2.4457 -1.41609
lowerback 17.8536 1.09467 1.55325
upperback -2.1155 1.85172 0.401957
thorax -12.3927 0.77132 -0.958495
lowerneck -10.2323 -3.76191 -4.90728
upperneck -13.7346 -4.14445 6.07685
head -2.44316 -1.95682 2.79184
rclavicle 1.5207e-014 -4.77083e-015
rhumerus -28.0762 -13.207 -78.4236
rradius 26.384
rwrist 40.7138
rhand -10.1516 -49.9682
rfingers 7.12502
rthumb 15.8377 -79.3404
lclavicle 1.5207e-014 -4.77083e-015
lhumerus -33.3438 6.36706 83.8736
lradius 27.3328
lwrist -20.8438
lhand -10.906 -43.8982
lfingers 7.12502
lthumb 15.1111 -14.4698
rfemur -50.7333 4.3601 28.9868
rtibia 72.3378
rfoot -33.2035 -24.1337
rtoes -7.14624
lfemur -55.0102 -2.52476 -21.2795
ltibia 76.2322
lfoot -36.0443 7.33099
ltoes -30.4293
68
root 9.41073 13.6066 -9.72896 21.8487 1.70666 -1.79682
lowerback 17.8864 1.36861 1.18251
upperback -2.07785 2.145 0.491035
thorax -12.3788 0.937837 -0.731816
lowerneck -10.2412 -3.703 -4.958
upperneck -13.8037 -4.05337 6.14544
head -2.46872 -1.91013 2.82836
rclavicle -7.35503e-015 4.17448e-015
rhumerus -26.1052 -13.4975 -78.8247
rradius 26.5723
rwrist 40.0455
rhand -10.393 -50.1047
rfingers 7.12502
rthumb 15.6051 -79.4952
lclavicle -7.35503e-015 4.17448e-015
lhumerus -31.623 6.4143 84.0885
lradius 27.4834
lwrist -21.0387
lhand -10.4739 -43.2686
lfingers 7.12502
lthumb 15.5273 -13.872
rfemur -50.7706 5.2363 29.2023
rtibia 72.9324
rfoot -32.8941 -24.2669
rtoes -7.18793
lfemur -55.0891 -1.49545 -21.1861
ltibia 76.9166
lfoot -36.1163 7.33216
ltoes -31.1776
69
root 9.41057 13.5744 -9.70352 21.8909 1.34523 -1.858
lowerback 17.7237 1.45899 0.919717
upperback -2.0315 2.20845 0.526897
thorax -12.2411 0.9892 -0.555315
lowerneck -10.2334 -3.61824 -5.01897
upperneck -13.9747 -3.92512 6.20183
head -2.53474 -1.84434 2.86673
rclavicle -1.82882e-014 2.5842e-015
rhumerus -24.0366 -13.0972 -79.3692
rradius 27.0813
rwrist 38.7622
rhand -10.4727 -50.4582
rfingers 7.12502
rthumb 15.5284 -79.8547
lclavicle -1.82882e-014 2.5842e-015
lhumerus -29.7431 6.51573 84.332
lradius 27.5763
lwrist -21.3383
lhand -10.2385 -42.6353
lfingers 7.12502
lthumb 15.754 -13.2564
rfemur -51.0184 5.71454 29.1268
rtibia 73.5052
rfoot -32.7523 -24.1997
rtoes -6.61977
lfemur -55.2859 -1.04682 -21.2864
ltibia 77.4458
lfoot -36.1161 7.14396
ltoes -30.7098
70
root 9.43218 13.5428 -9.68239 22.0971 1.71026 -1.55985
lowerback 17.4149 1.21708 1.12908
upperback -2.11755 1.92114 0.459694
thorax -12.1521 0.839419 -0.661981
lowerneck -10.1539 -3.53974 -4.84122
upperneck -14.0122 -3.85652 5.9618
head -2.57217 -1.81525 2.75639
rclavicle 2.08724e-014 9.74045e-015
rhumerus -22.1646 -12.3914 -79.8278
rradius 27.7898
rwrist 37.3223
rhand -10.4718 -50.7005
rfingers 7.12502
rthumb 15.5293 -80.0969
lclavicle 2.08724e-014 9.74045e-015
lhumerus -27.7964 6.76639 84.4721
lradius 27.3627
lwrist -21.8096
lhand -11.5812 -45.8149
lfingers 7.12502
lthumb 14.4606 -16.3387
rfemur -51.545 5.37365 28.8368
rtibia 74.1225
rfoot -32.6488 -24.1706
rtoes -6.59756
lfemur -55.7169 -1.59681 -21.5259
ltibia 77.9286
lfoot -35.8738 6.97568
ltoes -29.7041
71
root 9.43793 13.5521 -9.6356 21.0252 2.49092 -1.22881
lowerback 18.4927 0.854413 1.33142
upperback -1.95784 1.50029 0.475986
thorax -12.6023 0.623801 -0.662685
lowerneck -10.0045 -3.52921 -4.69136
upperneck -13.9379 -3.88695 5.68503
head -2.57725 -1.83443 2.63559
rclavicle 3.37934e-015 1.19271e-014
rhumerus -20.3426 -11.8301 -80.1421
rradius 28.4247
rwrist 36.3065
rhand -10.317 -50.6519
rfingers 7.12502
rthumb 15.6783 -80.0367
lclavicle 3.37934e-015 1.19271e-014
lhumerus -25.866 6.80712 84.5932
lradius 27.2572
lwrist -21.7816
lhand -12.1188 -48.4731
lfingers 7.12502
lthumb 13.9426 -18.9606
rfemur -50.0917 4.60276 28.8346
rtibia 74.4073
rfoot -33.0369 -24.3589
rtoes -6.63039
lfemur -54.2648 -2.35825 -21.6255
ltibia 78.0829
lfoot -35.7941 6.87484
ltoes -29.4162
72
root 9.42846 13.5348 -9.61208 21.2941 1.59922 -1.44786
lowerback 18.0996 1.22688 0.796493
upperback -2.02276 1.87686 0.528267
thorax -12.4589 0.840488 -0.400526
lowerneck -10.4744 -3.59847 -4.6639
upperneck -13.5786 -3.98834 5.49268
head -2.37331 -1.87743 2.54262
rclavicle -2.39536e-014 -5.36719e-015
rhumerus -18.1292 -11.4637 -80.3643
rradius 29.133
rwrist 35.4979
rhand -10.0399 -50.7655
rfingers 7.12502
rthumb 15.9452 -80.1291
lclavicle -2.39536e-014 -5.36719e-015
lhumerus -23.624 7.03427 84.6675
lradius 27.2401
lwrist -21.7628
lhand -9.08911 -44.9941
lfingers 7.12502
lthumb 16.8607 -15.706
rfemur -50.4968 5.68324 28.7354
rtibia 74.7282
rfoot -32.6042 -24.4403
rtoes -7.19171
lfemur -54.5368 -1.38672 -21.7073
ltibia 78.4659
lfoot -35.7085 6.49118
ltoes -28.8044
73
root 9.41607 13.5343 -9.58117 21.2683 1.03981 -1.63988
lowerback 17.8338 1.48539 0.378133
upperback -1.90577 2.13263 0.602588
thorax -12.1863 0.994471 -0.144294
lowerneck -11.0393 -3.6317 -4.48906
upperneck -13.3027 -4.05265 5.21778
head -2.1902 -1.90669 2.39713
rclavicle 2.06736e-014 9.93923e-016
rhumerus -15.6968 -11.0329 -80.5567
rradius 29.9958
rwrist 33.8779
rhand -10.4459 -50.8484
rfingers 7.12502
rthumb 15.5542 -80.2429
lclavicle 2.06736e-014 9.93923e-016
lhumerus -21.2246 7.69065 84.489
lradius 27.0363
lwrist -22.6365
lhand -9.6267 -46.42
lfingers 7.12502
lthumb 16.3431 -17.0886
rfemur -50.4178 6.44942 28.7571
rtibia 74.8538
rfoot -32.3002 -24.4695
rtoes -7.14385
lfemur -54.4474 -0.692486 -21.6617
ltibia 78.7098
lfoot -35.569 6.06565
ltoes -27.4203
74
root 9.41025 13.5425 -9.54778 21.1533 0.773869 -1.75635
lowerback 17.704 1.60285 0.210075
upperback -1.85619 2.25449 0.635531
thorax -12.0622 1.06521 -0.0421207
lowerneck -11.2746 -3.63875 -4.27176
upperneck -13.0913 -4.09911 4.93201
head -2.08702 -1.93312 2.25112
rclavicle -9.83984e-015 4.17448e-015
rhumerus -13.4418 -10.1276 -80.6968
rradius 31.0939
rwrist 31.0775
rhand -11.0042 -51.1939
rfingers 7.12502
rthumb 15.0164 -80.6294
lclavicle -9.83984e-015 4.17448e-015
lhumerus -18.8483 7.8233 84.3804
lradius 27.2302
lwrist -22.4368
lhand -8.89614 -46.5128
lfingers 7.12502
lthumb 17.0464 -17.2407
rfemur -50.1637 6.8871 28.7999
rtibia 74.9122
rfoot -32.0048 -24.6548
rtoes -6.62492
lfemur -54.2613 -0.399559 -21.575
ltibia 78.8852
lfoot -35.2771 6.08562
ltoes -27.2433
75
root 9.41267 13.5534 -9.50958 21.0405 0.613566 -1.80594
lowerback 17.5813 1.66016 0.226863
upperback -1.8882 2.33213 0.616927
thorax -12.0257 1.10016 -0.0906317
lowerneck -11.4193 -3.67117 -4.27186
upperneck -12.7505 -4.15028 4.85128
head -1.94818 -1.95617 2.21174
rclavicle 3.07122e-014 2.18663e-015
rhumerus -11.3199 -9.34322 -80.5895
rradius 32.2224
rwrist 29.1621
rhand -11.0354 -51.3965
rfingers 7.12502
rthumb 14.9864 -80.8342
lclavicle 3.07122e-014 2.18663e-015
lhumerus -16.2503 8.07999 84.2759
lradius 27.2198
lwrist -22.2804
lhand -7.88296 -45.9979
lfingers 7.12502
lthumb 18.0215 -16.8128
rfemur -49.8348 7.13118 28.8145
rtibia 74.8792
rfoot -31.5214 -24.7061
rtoes -6.61735
lfemur -53.9737 -0.257778 -21.5807
ltibia 78.9239
lfoot -34.888 6.43363
ltoes -29.523
76
root 9.41963 13.5595 -9.46615 20.9217 0.579705 -1.85852
lowerback 17.3872 1.645 0.330464
upperback -1.9177 2.33439 0.622519
thorax -11.9419 1.09569 -0.138588
lowerneck -11.6449 -3.65851 -4.26992
upperneck -12.366 -4.13837 4.76895
head -1.78554 -1.94696 2.17097
rclavicle -4.87022e-015 5.96354e-016
rhumerus -9.09341 -8.9135 -80.1796
rradius 32.7249
rwrist 29.2836
rhand -11.9957 -50.0246
rfingers 7.12502
rthumb 14.0611 -79.529
lclavicle -4.87022e-015 5.96354e-016
lhumerus -13.7181 8.73003 83.9747
lradius 27.0335
lwrist -23.0009
lhand -8.08877 -46.6465
lfingers 7.12502
lthumb 17.8234 -17.4433
rfemur -49.4287 7.2131 28.8863
rtibia 74.7925
rfoot -30.9879 -24.4841
rtoes -7.52912
lfemur -53.6495 -0.172338 -21.6049
ltibia 78.9098
lfoot -34.5941 6.65632
ltoes -31.2346
